<mxfile host="" modified="2020-06-25T13:30:50.550Z" agent="5.0 (Macintosh; Intel Mac OS X 10_15_5) AppleWebKit/537.36 (KHTML, like Gecko) Code/1.46.1 Chrome/78.0.3904.130 Electron/7.3.1 Safari/537.36" etag="wrc2uETg9t2UiNwPDu64" version="13.1.3">
    <diagram id="6hGFLwfOUW9BJ-s0fimq" name="Page-1">
        <mxGraphModel dx="637" dy="698" grid="1" gridSize="10" guides="1" tooltips="1" connect="1" arrows="1" fold="1" page="1" pageScale="1" pageWidth="827" pageHeight="1169" math="0" shadow="0">
            <root>
                <mxCell id="0"/>
                <mxCell id="1" parent="0"/>
                <mxCell id="19" value="" style="edgeStyle=orthogonalEdgeStyle;rounded=0;orthogonalLoop=1;jettySize=auto;html=1;" parent="1" source="2" target="6" edge="1">
                    <mxGeometry relative="1" as="geometry"/>
                </mxCell>
                <mxCell id="2" value="master" style="rounded=1;whiteSpace=wrap;html=1;fillColor=#049B4A;" parent="1" vertex="1">
                    <mxGeometry x="339" y="40" width="140" height="40" as="geometry"/>
                </mxCell>
                <mxCell id="3" value="deploy_prod" style="rounded=1;whiteSpace=wrap;html=1;fillColor=#049B4A;" parent="1" vertex="1">
                    <mxGeometry x="260" y="840" width="140" height="40" as="geometry"/>
                </mxCell>
                <mxCell id="5" value="deploy_dev" style="rounded=1;whiteSpace=wrap;html=1;fillColor=#049B4A;" parent="1" vertex="1">
                    <mxGeometry x="260" y="200" width="140" height="40" as="geometry"/>
                </mxCell>
                <mxCell id="6" value="prerelease" style="rounded=1;whiteSpace=wrap;html=1;fillColor=#049B4A;" parent="1" vertex="1">
                    <mxGeometry x="339" y="120" width="140" height="40" as="geometry"/>
                </mxCell>
                <mxCell id="28" value="" style="edgeStyle=orthogonalEdgeStyle;rounded=0;orthogonalLoop=1;jettySize=auto;html=1;" parent="1" source="7" target="11" edge="1">
                    <mxGeometry relative="1" as="geometry"/>
                </mxCell>
                <mxCell id="7" value="release" style="rounded=1;whiteSpace=wrap;html=1;fillColor=#049B4A;" parent="1" vertex="1">
                    <mxGeometry x="339" y="360" width="140" height="40" as="geometry"/>
                </mxCell>
                <mxCell id="33" value="" style="edgeStyle=orthogonalEdgeStyle;rounded=0;orthogonalLoop=1;jettySize=auto;html=1;" parent="1" source="8" target="18" edge="1">
                    <mxGeometry relative="1" as="geometry"/>
                </mxCell>
                <mxCell id="8" value="passed" style="rounded=1;whiteSpace=wrap;html=1;fillColor=#049B4A;" parent="1" vertex="1">
                    <mxGeometry x="260" y="680" width="140" height="40" as="geometry"/>
                </mxCell>
                <mxCell id="9" value="deploy_stage" style="rounded=1;whiteSpace=wrap;html=1;fillColor=#049B4A;" parent="1" vertex="1">
                    <mxGeometry x="180" y="600" width="140" height="40" as="geometry"/>
                </mxCell>
                <mxCell id="10" value="deploy_temp_test_dev" style="rounded=1;whiteSpace=wrap;html=1;fillColor=#049B4A;" parent="1" vertex="1">
                    <mxGeometry x="420" y="200" width="140" height="40" as="geometry"/>
                </mxCell>
                <mxCell id="11" value="deploy_temp_test_stage" style="rounded=1;whiteSpace=wrap;html=1;fillColor=#049B4A;" parent="1" vertex="1">
                    <mxGeometry x="339" y="440" width="140" height="40" as="geometry"/>
                </mxCell>
                <mxCell id="12" value="deploy_temp_test_prod" style="rounded=1;whiteSpace=wrap;html=1;fillColor=#049B4A;" parent="1" vertex="1">
                    <mxGeometry x="339" y="600" width="140" height="40" as="geometry"/>
                </mxCell>
                <mxCell id="27" value="" style="edgeStyle=orthogonalEdgeStyle;rounded=0;orthogonalLoop=1;jettySize=auto;html=1;" parent="1" source="13" target="7" edge="1">
                    <mxGeometry relative="1" as="geometry"/>
                </mxCell>
                <mxCell id="13" value="passed" style="rounded=1;whiteSpace=wrap;html=1;fillColor=#049B4A;" parent="1" vertex="1">
                    <mxGeometry x="339" y="280" width="140" height="40" as="geometry"/>
                </mxCell>
                <mxCell id="14" value="passed" style="rounded=1;whiteSpace=wrap;html=1;fillColor=#049B4A;" parent="1" vertex="1">
                    <mxGeometry x="260" y="520" width="140" height="40" as="geometry"/>
                </mxCell>
                <mxCell id="15" value="failed" style="rounded=1;whiteSpace=wrap;html=1;fillColor=#049B4A;" parent="1" vertex="1">
                    <mxGeometry x="500" y="280" width="140" height="40" as="geometry"/>
                </mxCell>
                <mxCell id="16" value="failed" style="rounded=1;whiteSpace=wrap;html=1;fillColor=#049B4A;" parent="1" vertex="1">
                    <mxGeometry x="420" y="520" width="140" height="40" as="geometry"/>
                </mxCell>
                <mxCell id="17" value="failed" style="rounded=1;whiteSpace=wrap;html=1;fillColor=#049B4A;" parent="1" vertex="1">
                    <mxGeometry x="420" y="680" width="140" height="40" as="geometry"/>
                </mxCell>
                <mxCell id="34" value="" style="edgeStyle=orthogonalEdgeStyle;rounded=0;orthogonalLoop=1;jettySize=auto;html=1;" parent="1" source="18" target="3" edge="1">
                    <mxGeometry relative="1" as="geometry"/>
                </mxCell>
                <mxCell id="18" value="pending_approval" style="rounded=1;whiteSpace=wrap;html=1;fillColor=#049B4A;" parent="1" vertex="1">
                    <mxGeometry x="260" y="760" width="140" height="40" as="geometry"/>
                </mxCell>
                <mxCell id="23" value="" style="endArrow=classic;html=1;exitX=0.5;exitY=1;exitDx=0;exitDy=0;entryX=0.5;entryY=0;entryDx=0;entryDy=0;" parent="1" source="6" target="5" edge="1">
                    <mxGeometry width="50" height="50" relative="1" as="geometry">
                        <mxPoint x="230" y="170" as="sourcePoint"/>
                        <mxPoint x="280" y="120" as="targetPoint"/>
                    </mxGeometry>
                </mxCell>
                <mxCell id="24" value="" style="endArrow=classic;html=1;entryX=0.5;entryY=0;entryDx=0;entryDy=0;" parent="1" target="10" edge="1">
                    <mxGeometry width="50" height="50" relative="1" as="geometry">
                        <mxPoint x="410" y="160" as="sourcePoint"/>
                        <mxPoint x="319" y="210" as="targetPoint"/>
                    </mxGeometry>
                </mxCell>
                <mxCell id="25" value="" style="endArrow=classic;html=1;entryX=0.5;entryY=0;entryDx=0;entryDy=0;exitX=0.5;exitY=1;exitDx=0;exitDy=0;" parent="1" source="10" target="13" edge="1">
                    <mxGeometry width="50" height="50" relative="1" as="geometry">
                        <mxPoint x="500" y="240" as="sourcePoint"/>
                        <mxPoint x="410" y="280" as="targetPoint"/>
                    </mxGeometry>
                </mxCell>
                <mxCell id="26" value="" style="endArrow=classic;html=1;exitX=0.5;exitY=1;exitDx=0;exitDy=0;entryX=0.5;entryY=0;entryDx=0;entryDy=0;" parent="1" source="10" target="15" edge="1">
                    <mxGeometry width="50" height="50" relative="1" as="geometry">
                        <mxPoint x="429" y="190" as="sourcePoint"/>
                        <mxPoint x="339" y="230" as="targetPoint"/>
                    </mxGeometry>
                </mxCell>
                <mxCell id="29" value="" style="endArrow=classic;html=1;exitX=0.5;exitY=1;exitDx=0;exitDy=0;entryX=0.5;entryY=0;entryDx=0;entryDy=0;" parent="1" source="11" target="14" edge="1">
                    <mxGeometry width="50" height="50" relative="1" as="geometry">
                        <mxPoint x="439" y="200" as="sourcePoint"/>
                        <mxPoint x="349" y="240" as="targetPoint"/>
                    </mxGeometry>
                </mxCell>
                <mxCell id="30" value="" style="endArrow=classic;html=1;exitX=0.5;exitY=1;exitDx=0;exitDy=0;entryX=0.5;entryY=0;entryDx=0;entryDy=0;" parent="1" source="11" target="16" edge="1">
                    <mxGeometry width="50" height="50" relative="1" as="geometry">
                        <mxPoint x="449" y="210" as="sourcePoint"/>
                        <mxPoint x="359" y="250" as="targetPoint"/>
                    </mxGeometry>
                </mxCell>
                <mxCell id="31" value="" style="endArrow=classic;html=1;exitX=0.5;exitY=1;exitDx=0;exitDy=0;entryX=0.5;entryY=0;entryDx=0;entryDy=0;" parent="1" source="14" target="9" edge="1">
                    <mxGeometry width="50" height="50" relative="1" as="geometry">
                        <mxPoint x="459" y="220" as="sourcePoint"/>
                        <mxPoint x="369" y="260" as="targetPoint"/>
                    </mxGeometry>
                </mxCell>
                <mxCell id="32" value="" style="endArrow=classic;html=1;exitX=0.5;exitY=1;exitDx=0;exitDy=0;entryX=0.5;entryY=0;entryDx=0;entryDy=0;" parent="1" source="14" target="12" edge="1">
                    <mxGeometry width="50" height="50" relative="1" as="geometry">
                        <mxPoint x="469" y="230" as="sourcePoint"/>
                        <mxPoint x="379" y="270" as="targetPoint"/>
                    </mxGeometry>
                </mxCell>
                <mxCell id="35" value="" style="endArrow=classic;html=1;exitX=0.5;exitY=1;exitDx=0;exitDy=0;entryX=0.5;entryY=0;entryDx=0;entryDy=0;" parent="1" source="12" target="8" edge="1">
                    <mxGeometry width="50" height="50" relative="1" as="geometry">
                        <mxPoint x="479" y="240" as="sourcePoint"/>
                        <mxPoint x="389" y="280" as="targetPoint"/>
                    </mxGeometry>
                </mxCell>
                <mxCell id="36" value="" style="endArrow=classic;html=1;entryX=0.5;entryY=0;entryDx=0;entryDy=0;" parent="1" target="17" edge="1">
                    <mxGeometry width="50" height="50" relative="1" as="geometry">
                        <mxPoint x="430" y="640" as="sourcePoint"/>
                        <mxPoint x="305" y="690" as="targetPoint"/>
                    </mxGeometry>
                </mxCell>
            </root>
        </mxGraphModel>
    </diagram>
</mxfile>